<svg xmlns="http://www.w3.org/2000/svg" viewBox="0 0 256 256" width="256" height="256">
  <defs>
    <linearGradient id="shell" x1="0%" y1="0%" x2="100%" y2="100%">
      <stop offset="0%" stop-color="#0f172a"/>
      <stop offset="100%" stop-color="#1e293b"/>
    </linearGradient>
    <linearGradient id="accent" x1="0%" y1="0%" x2="100%" y2="100%">
      <stop offset="0%" stop-color="#22d3ee"/>
      <stop offset="100%" stop-color="#f59e0b"/>
    </linearGradient>
    <linearGradient id="panel" x1="0%" y1="0%" x2="0%" y2="100%">
      <stop offset="0%" stop-color="#f8fafc"/>
      <stop offset="100%" stop-color="#cbd5e1"/>
    </linearGradient>
  </defs>

  <rect x="18" y="18" width="220" height="220" rx="52" fill="url(#shell)"/>
  <rect x="36" y="36" width="184" height="184" rx="38" fill="#111827" opacity="0.88"/>

  <rect x="62" y="58" width="102" height="140" rx="20" fill="url(#panel)"/>
  <rect x="76" y="82" width="56" height="10" rx="5" fill="#0f172a" opacity="0.88"/>
  <rect x="76" y="102" width="72" height="8" rx="4" fill="#475569" opacity="0.7"/>
  <rect x="76" y="118" width="64" height="8" rx="4" fill="#64748b" opacity="0.55"/>
  <rect x="76" y="134" width="48" height="8" rx="4" fill="#94a3b8" opacity="0.55"/>
  <rect x="76" y="156" width="60" height="26" rx="8" fill="#dbeafe"/>

  <circle cx="176" cy="150" r="34" fill="none" stroke="url(#accent)" stroke-width="12"/>
  <circle cx="176" cy="150" r="20" fill="#0f172a" opacity="0.92"/>
  <path d="M167 149 L175 157 L189 142" fill="none" stroke="#f8fafc" stroke-width="5" stroke-linecap="round" stroke-linejoin="round"/>
  <line x1="201" y1="176" x2="222" y2="197" stroke="#f59e0b" stroke-width="12" stroke-linecap="round"/>

  <rect x="56" y="48" width="84" height="12" rx="6" fill="#22d3ee" opacity="0.92"/>
</svg>
